HIERARCHY
ROOT Hips
{
  OFFSET 24.8332 94.535 -270.017
  CHANNELS 6 Xposition Yposition Zposition Zrotation Xrotation Yrotation
  JOINT ToSpine
  {
    OFFSET -2.69724 7.43032 -0.144315
    CHANNELS 3 Zrotation Xrotation Yrotation
    JOINT Spine
    {
      OFFSET -0.0310711 10.7595 1.96963
      CHANNELS 3 Zrotation Xrotation Yrotation
      JOINT Spine1
      {
        OFFSET 19.9056 3.91189 0.764692
        CHANNELS 3 Zrotation Xrotation Yrotation
        JOINT Neck
        {
          OFFSET 25.9749 7.03908 -0.130764
          CHANNELS 3 Zrotation Xrotation Yrotation
          JOINT Head
          {
            OFFSET 9.52751 0.295786 -0.907742
            CHANNELS 3 Zrotation Xrotation Yrotation
            End Site
            {
              OFFSET 16.4037 0.713936 2.7358
            }
          }
        }
        JOINT LeftShoulder
        {
          OFFSET 17.7449 4.33886 11.7777
          CHANNELS 3 Zrotation Xrotation Yrotation
          JOINT LeftArm
          {
            OFFSET 0.911315 1.27913 9.80584
            CHANNELS 3 Zrotation Xrotation Yrotation
            JOINT LeftForeArm
            {
              OFFSET 28.6126 1.18197 -3.53199
              CHANNELS 3 Zrotation Xrotation Yrotation
              JOINT LeftHand
              {
                OFFSET 27.5088 0.0218783 0.327423
                CHANNELS 3 Zrotation Xrotation Yrotation
                End Site
                {
                  OFFSET 18.6038 -0.000155887 0.382096
                }
              }
            }
          }
        }
        JOINT RightShoulder
        {
          OFFSET 17.1009 2.89543 -12.2328
          CHANNELS 3 Zrotation Xrotation Yrotation
          JOINT RightArm
          {
            OFFSET 1.4228 0.178766 -10.211
            CHANNELS 3 Zrotation Xrotation Yrotation
            JOINT RightForeArm
            {
              OFFSET 28.733 1.87905 2.64907
              CHANNELS 3 Zrotation Xrotation Yrotation
              JOINT RightHand
              {
                OFFSET 27.4588 0.290562 -0.101845
                CHANNELS 3 Zrotation Xrotation Yrotation
                End Site
                {
                  OFFSET 17.8396 -0.255518 -0.000602873
                }
              }
            }
          }
        }
      }
    }
  }
  JOINT LeftUpLeg
  {
    OFFSET -5.61296 -2.22332 -10.2353
    CHANNELS 3 Zrotation Xrotation Yrotation
    JOINT LeftLeg
    {
      OFFSET 2.56703 -44.7417 -7.93097
      CHANNELS 3 Zrotation Xrotation Yrotation
      JOINT LeftFoot
      {
        OFFSET 3.16933 -46.5642 -3.96578
        CHANNELS 3 Zrotation Xrotation Yrotation
        JOINT LeftToeBase
        {
          OFFSET 0.346054 -6.02161 12.8035
          CHANNELS 3 Zrotation Xrotation Yrotation
          End Site
          {
            OFFSET 0.134235 -1.35082 5.13018
          }
        }
      }
    }
  }
  JOINT RightUpLeg
  {
    OFFSET -5.7928 -1.72406 10.6446
    CHANNELS 3 Zrotation Xrotation Yrotation
    JOINT RightLeg
    {
      OFFSET -2.57161 -44.7178 -7.85259
      CHANNELS 3 Zrotation Xrotation Yrotation
      JOINT RightFoot
      {
        OFFSET -3.10148 -46.5936 -4.03391
        CHANNELS 3 Zrotation Xrotation Yrotation
        JOINT RightToeBase
        {
          OFFSET -0.0828122 -6.13587 12.8035
          CHANNELS 3 Zrotation Xrotation Yrotation
          End Site
          {
            OFFSET -0.131328 -1.35082 5.13018
          }
        }
      }
    }
  }
}
MOTION
Frames:	19
Frame Time:	0.0333333
10.1743 88.8359 22.1756 -39.5722 -61.8614 -148.523 -70.1915 0 88.8779 124.507 62.2516 -44.6494 10.8433 18.6303 -5.72196 -161.883 24.0761 169.826 -155.925 63.0555 -177.7 2.0653 -2.67424 -24.9821 -72.0964 44.4671 -139.586 20.6377 10.8934 -60.5934 13.878 -1.18868 -7.86973 -0.363999 3.88663 26.8433 -76.8367 -66.6252 68.7607 2.27066 0.0710008 51.5475 8.84685 0.364835 4.70638 -51.906 2.81382 86.0056 -12.05 71.8431 -7.0769 2.15875 1.72099 -0.281836 -6.37202 -23.4098 16.7563 -13.5067 2.8609 69.0313 6.78145 69.7166 -4.53208 -6.74102 -1.8456 1.01171 4.82662 -2.51984 -11.1859 
6.16192 87.726 33.0227 -45.7345 -60.4484 -153.019 -70.1915 0 88.8779 127.995 62.3322 -46.387 12.9122 19.0274 -3.55717 -161.411 24.1451 170.524 -150.7 62.5121 177.94 2.29043 -1.62509 -26.0802 -72.8003 43.2035 -129.326 17.9167 13.0366 -51.3192 14.4851 -1.17291 -7.35372 -0.19372 2.53671 27.4274 -82.2921 -63.057 67.2143 2.41322 -0.0517057 51.9422 7.14296 0.348321 5.74347 -49.3404 0.386203 78.756 -48.2131 84.6832 37.6156 2.3388 5.8919 -0.0928184 -7.18587 -30.8921 17.6044 -23.5721 3.85545 65.2081 8.55303 71.3785 -3.26193 -7.24031 -5.32733 1.09393 6.64974 -1.23307 -17.2177 
2.13742 85.2015 43.1883 -47.5974 -55.0037 -150.053 -70.1915 0 88.8779 131.426 64.0364 -43.6592 13.3485 20.445 -0.0563966 -164.689 24.3668 172.763 -148.859 62.5177 176.661 2.65286 -0.60645 -28.5929 -71.0042 40.3513 -120.654 13.1868 16.8881 -33.4801 16.5131 -1.06898 -5.55259 0.144202 0.151606 27.9936 -87.7845 -57.608 72.2925 -0.113722 2.16125 49.4965 5.48832 0.266387 5.8962 -37.5189 3.67098 71.4669 -160.601 76.9511 158.031 5.11132 6.0979 -0.561092 -7.80187 -35.8348 17.0202 -28.5873 11.3335 64.2765 11.3652 72.9108 0.146495 -7.02353 -5.38968 1.07818 10.959 -18.8338 -20.5854 
-1.87222 83.3977 54.0088 -47.5485 -49.6729 -147.39 -70.1915 0 88.8779 134.738 64.4893 -42.7318 10.459 20.8617 2.96946 -167.26 23.1775 173.382 -147.359 61.0247 175.525 2.80787 -0.755862 -30.7066 -70.5228 38.3285 -107.707 6.37359 19.5393 -19.0424 17.6685 -0.874224 -3.85346 0.433087 -1.75912 28.5192 -89.8943 -54.2295 84.7249 0.837362 1.54035 47.0516 5.9302 0.244083 4.89487 -21.9552 2.13937 65.006 -167.82 67.6382 168.406 10.5108 6.76811 -1.50469 -8.80381 -42.4689 16.0842 -33.4938 15.4543 65.7779 13.7391 74.3126 1.22221 -7.61714 -7.43999 1.13345 11.3464 -22.806 -18.1581 
-7.50923 83.0136 66.0351 -50.107 -44.6122 -151.185 -70.1915 0 88.8779 139.372 65.2688 -46.7549 6.57736 22.4357 3.62008 -167.051 23.2157 174.087 -147.572 60.9418 173.658 2.67287 -1.26874 -30.2108 -91.36 38.6361 -82.7237 -3.01286 33.4103 -8.02082 16.426 -0.93561 -4.68845 0.348096 -1.23743 27.6683 -93.896 -52.8962 90.3134 5.56254 -2.26676 55.9074 5.86199 0.237422 4.81797 -10.045 -0.803003 64.7166 -167.125 67.9885 165.073 7.99806 3.77116 -1.06538 -9.16907 -42.3326 13.9016 -46.4973 16.0719 72.143 10.232 68.9515 9.25898 -9.54737 -10.1309 1.21216 11.3747 -24.4827 -15.7633 
-14.3481 84.1518 77.9544 -48.8449 -42.0428 -156.868 -70.1915 0 88.8779 139.673 68.5882 -51.233 3.23222 24.4755 3.87566 -165.297 24.695 174.325 -146.515 62.2061 171.271 2.27806 -2.17251 -27.0079 -92.1173 41.0421 -73.179 -5.1053 33.5672 -6.15615 15.3072 -0.912842 -4.9872 0.345002 -1.47606 23.0563 -91.7594 -52.0378 97.1453 11.4159 -3.69889 70.2017 7.01747 0.362584 6.118 -0.279907 -5.19204 71.4891 -156.359 79.3055 151.936 6.56544 1.92888 -0.87449 -8.63059 -41.7643 16.5205 -59.8196 10.1893 80.7542 6.12335 57.9245 15.998 -9.60239 -11.093 1.20215 10.1976 -20.835 -14.2215 
-22.1333 86.4824 88.9109 -47.2328 -42.4867 -161.753 -70.1915 0 88.8779 139.519 70.9247 -54.2629 4.81905 26.7245 -1.18602 -164.534 26.4224 173.733 -149.287 64.5536 173.794 1.814 -4.73337 -25.5291 -86.7853 41.5297 -74.9295 -5.0577 29.8213 -7.553 14.0099 -0.895451 -5.46219 0.398125 -2.64116 19.3235 -90.1977 -49.9419 102.303 16.6968 -1.98521 85.1384 8.11404 0.425263 6.12395 2.90834 -7.24093 79.6412 -18.3823 79.8128 13.1863 3.94063 2.83921 -0.48096 -8.58202 -41.0852 16.2537 -72.6888 6.15658 89.9572 2.7715 42.4834 9.898 -8.48245 -9.00135 1.17922 1.17449 0.586821 -3.54194 
-30.0834 88.1529 99.7529 -45.8477 -43.8168 -161.913 -70.1915 0 88.8779 136.626 72.3295 -49.6324 9.5722 27.4287 -7.37742 -161.581 27.4287 170.869 -146.178 65.1313 172.006 1.68184 -5.61004 -25.3063 -85.993 39.5726 -83.0985 -6.53937 28.997 -5.86067 13.2132 -0.918307 -6.07963 0.417618 -2.83394 19.6071 -91.5841 -46.7457 101.487 19.4283 0.402293 94.4583 7.2879 0.402393 6.53671 1.40366 -6.71558 85.9451 -7.04957 65.9196 -3.93977 1.78526 3.04114 -0.157285 -7.81562 -37.1333 18.2599 -79.4363 5.7753 92.7068 1.77761 38.1471 4.16036 -2.67891 2.23543 0.387091 -36.2697 49.3208 27.4273 
-37.7773 87.1914 108.784 -47.3931 -45.4483 -161.302 -70.1915 0 88.8779 135.489 71.6677 -49.24 13.2158 26.0795 -7.55165 -159.709 26.4889 167.415 -145.673 64.0765 172.121 1.90534 -4.79143 -27.5819 -83.5339 37.0377 -95.4409 -5.51734 23.3179 -7.71815 13.6172 -0.875958 -5.50734 0.345575 -1.77675 20.1956 -87.2152 -48.8321 101.737 20.7712 -0.22508 92.0362 11.0059 0.625713 6.5149 -1.79481 -3.86277 90.6939 -7.52914 66.7535 -3.97143 1.54211 3.3011 -0.1065 -7.19346 -32.9797 20.686 -77.0656 8.47324 87.6877 3.41346 56.8717 0.376197 -3.20192 4.82279 0.350127 -33.232 56.6108 20.1135 
-45.7621 86.6426 117.485 -50.3206 -47.4544 -163.557 -70.1915 0 88.8779 132.872 70.599 -50.1441 18.2151 24.5958 -7.74347 -159.637 25.2115 165.272 -146.753 63.1146 175.517 2.00389 -4.62824 -29.031 -77.0576 31.8425 -112.176 -2.51878 15.9558 -12.4141 15.14 -0.879082 -4.81276 0.234631 -0.419551 23.077 -80.5711 -51.419 102.199 21.4946 -4.71831 78.1414 6.90139 0.415436 7.19824 -11.7027 -3.00937 92.5247 -8.65202 68.0927 -5.38587 3.74921 2.43637 -0.469014 -7.27139 -30.212 14.0052 -68.3964 9.19493 83.2727 27.2101 83.5545 -27.1419 -3.58368 5.45812 0.387391 -39.0012 60.408 24.9652 
-53.4141 86.4948 126.941 -50.3439 -50.1776 -167.727 -70.1915 0 88.8779 128.085 69.2739 -51.7749 18.2681 23.3224 -7.78964 -160.653 25.4633 165.432 -147.699 63.4859 176.479 2.31416 -3.87565 -32.195 -70.3043 19.4913 -127.86 1.82171 4.97661 -18.8876 17.0023 -1.25104 -6.53409 0.17625 -0.0474594 27.4277 -73.1942 -53.1911 103.697 17.0349 -11.2358 53.0544 6.09149 0.259354 5.05902 -20.9362 -8.08643 96.1793 -7.61557 66.6909 -3.96246 10.0307 9.44761 -1.45804 -11.1051 -48.2767 10.2563 -53.7013 3.3351 81.3848 167.152 69.4216 -167.108 -4.13626 2.69147 0.576892 -16.9643 53.5892 1.30299 
-60.7741 86.8851 135.459 -43.7104 -54.0422 -164.813 -70.1915 0 88.8779 122.248 67.8349 -49.9282 15.5175 21.5387 -6.49003 -163.07 26.1692 166.892 -153.924 64.8266 179.972 1.90426 -5.3227 -29.4746 -78.1193 22.6365 -137.173 4.18671 3.30408 -32.542 17.087 -1.1184 -5.63137 0.254203 -0.584725 30.9667 -68.1776 -55.1729 101.755 9.93704 -13.2152 28.1624 6.62226 0.182272 3.10952 -25.8293 -15.4548 93.0876 -7.50237 65.5763 -5.56274 6.66578 2.49441 -0.880195 -10.1695 -44.9987 11.2715 -29.5802 -1.66418 83.4215 170.747 51.8305 -168.355 -5.69267 -0.033495 0.861369 -5.55635 39.7015 -9.63302 
-70.502 87.0032 145.679 -41.2329 -53.1686 -162.152 -70.1915 0 88.8779 119.724 66.9297 -48.4719 11.9016 20.6295 -4.20449 -165.812 25.076 169.805 -157.319 63.913 -179.946 2.0854 -3.68563 -27.6669 -85.0195 27.0524 -143.636 9.56943 6.19146 -51.0361 14.1533 -1.01314 -6.31276 0.23848 -0.497899 32.0764 -72.3255 -57.5788 86.2658 10.5329 -23.7612 22.0705 1.18526 0.0153763 2.69075 -36.6353 -13.7533 91.2854 -6.58813 61.0035 -10.1448 9.06965 2.51986 -1.22088 -11.2492 -50.2922 11.4022 -8.9169 0.451274 89.5069 170.954 48.4013 -167.079 -6.54368 -1.12402 0.980429 0.288282 19.5722 -12.2186 
-82.3692 88.2384 157.126 -40.9111 -51.2526 -158.619 -70.1915 0 88.8779 114.607 66.2676 -41.0909 9.19352 19.0668 -1.89523 -166.763 23.2378 173.619 -159.021 62.3451 -179.759 2.31411 -2.27931 -27.7453 -90.0935 26.9897 -141.861 15.2028 4.50973 -72.0222 14.8025 -1.14414 -6.94665 0.12874 0.175802 29.8186 -64.3946 -60.8543 81.6366 8.20328 -21.8928 20.878 1.05759 0.0074733 1.49641 -51.1513 -9.12627 86.0946 -5.07146 52.4138 -15.8969 6.56122 -3.69802 -0.959358 -8.59479 -40.8639 15.9823 3.46916 2.52837 91.4739 169.707 58.4511 -166.319 -7.72294 -2.44111 1.11816 6.16665 3.67834 -18.3852 
-94.6823 91.1127 168.483 -45.6438 -47.9584 -155.064 -70.1915 0 88.8779 115.954 63.7624 -36.6805 8.24083 17.1256 -0.44651 -162.719 20.2205 170.907 -150.962 57.9885 174.184 2.04187 -1.82764 -23.1356 -93.6246 30.474 -129.418 19.0155 1.1624 -86.8791 16.9367 -1.16677 -6.0134 -0.367394 3.50555 28.3923 -75.7255 -62.4931 63.501 4.70211 -15.2411 19.2949 0.689837 0.00181533 2.0352 -66.7334 0.657759 85.1983 -0.145495 41.4948 -20.1622 -0.195798 -1.63651 -0.209034 -6.19624 -22.4067 14.7613 5.79724 4.78545 86.6116 159.086 78.5697 -156.761 -7.82419 -3.4281 1.13168 8.4333 -3.00226 -21.5306 
-106.205 94.0296 178.91 -48.8873 -44.482 -155.364 -70.1915 0 88.8779 113.309 63.6169 -32.9206 9.17934 16.3121 1.29641 -160.089 17.9787 170.399 -146.892 54.6508 169.919 2.25332 -0.662483 -24.0089 -91.6141 28.5514 -123.105 17.1228 1.62387 -84.7985 18.0947 -0.974661 -4.34025 -0.464405 4.49918 27.1952 -72.239 -65.5721 61.3053 2.79568 -3.40474 21.3511 1.05157 0.0103376 2.2932 -77.1019 2.80806 80.2633 -2.35603 39.0237 -15.2396 1.75471 5.66867 -0.00535162 -5.38218 -14.0602 16.8718 3.31758 5.86905 84.9097 10.7425 74.9585 -6.09881 -6.9458 -4.59075 1.06353 6.95254 -2.25763 -17.5215 
-115.869 95.1663 188.842 -52.9101 -42.545 -157.533 -70.1915 0 88.8779 113.362 63.7675 -30.9712 13.0762 16.8013 0.00843836 -159.685 16.9139 170.814 -147.476 53.6271 170.237 2.34801 -0.91822 -25.5454 -86.452 30.3582 -120.73 11.1283 3.59511 -69.6567 15.2968 -0.942491 -5.20703 -0.344732 3.4197 28.1208 -70.037 -66.908 62.9225 1.43795 3.11606 23.9331 1.96723 0.0317252 2.30848 -79.4626 0.996112 79.7505 -4.81468 56.5853 -8.69462 1.09366 7.70163 0.231819 -6.18966 -20.5383 19.411 -3.22458 4.77422 81.2641 2.80508 52.4474 1.57796 -4.95368 -0.644868 0.788713 2.55162 2.67689 -8.56375 
-126.073 95.7125 198.879 -56.3823 -41.2964 -159.435 -70.1915 0 88.8779 112.836 64.0485 -28.5412 16.8062 17.0139 -2.21881 -158.825 16.3174 171.07 -145.396 52.4391 168.426 2.39466 -1.43081 -27.0529 -80.419 33.283 -120.195 6.716 4.64916 -45.5939 7.34726 -0.586596 -7.14441 -0.277517 2.58189 30.1879 -73.1199 -65.6467 63.507 -1.94154 9.83383 26.2119 0.919868 0.0076526 2.43545 -76.0843 1.62231 83.3369 -24.9491 80.996 13.0936 -0.0550424 7.38709 0.424061 -6.08277 -20.1294 18.0591 -9.95313 3.51215 75.8644 2.00659 44.3709 2.40194 -4.12505 3.23855 0.556139 3.14782 3.94371 -10.853 
-136.87 94.2191 208.815 -59.9383 -38.8694 -160.674 -70.1915 0 88.8779 114.298 64.35 -30.2113 17.0372 17.2391 0.0507515 -160.862 14.9427 172.939 -146.44 50.8346 166.964 3.03335 0.117927 -31.3908 -72.4412 33.0332 -121.217 6.45344 11.6546 -21.3227 10.4035 -0.74091 -6.25306 -0.0943454 1.29564 32.1563 -71.193 -61.1406 71.817 -6.18502 16.6621 28.9697 0.767506 0.00449772 2.89045 -69.8206 4.21234 85.7852 -162.861 73.0267 155.317 -0.68022 5.82227 0.41922 -5.83168 -18.1031 17.2626 -15.3392 4.71993 71.8926 2.48997 50.5681 0.954195 -3.69049 0.439476 0.599585 1.14208 12.1205 -10.6165 
